# xmcd CD database file
#
# Track frame offsets:
#	182
#	18787
#	34295
#	53520
#	69832
#	93485
#	108720
#	132567
#	153857
#	163992
#	179612
#	216495
#	229262
#	243907
#
# Disc length: 3510 seconds
#
# Revision: 2
# Processed by: cddbd v1.5.2PL0 Copyright (c) Steve Scherf et al.
# Submitted via: CDex 1.70beta2
#
DISCID=c20db40e
DTITLE=Santana - Viva! The Very Best
DYEAR=1986
DGENRE=Rock
TTITLE0=She's Not There
TTITLE1=Well Alright
TTITLE2=Oye Como Va
TTITLE3=Let The Music Set You Free
TTITLE4=I'll Be Waiting
TTITLE5=What Does It Take (To Win Your Love)
TTITLE6=Black Magic Woman - Gypsy Queen
TTITLE7=Samba Pa Ti
TTITLE8=Carnaval
TTITLE9=Let The Children Play
TTITLE10=Dance Sister Dance
TTITLE11=Se A Cabo
TTITLE12=Everything's Coming Our Way
TTITLE13=Jin Go Lo Ba
EXTD=YEAR: 1986
EXTT0=
EXTT1=
EXTT2=
EXTT3=
EXTT4=
EXTT5=
EXTT6=
EXTT7=
EXTT8=
EXTT9=
EXTT10=
EXTT11=
EXTT12=
EXTT13=
PLAYORDER=
